<?xml version="1.0" encoding="utf-8"?>
<!-- Generator: Adobe Illustrator 23.0.3, SVG Export Plug-In . SVG Version: 6.00 Build 0)  -->
<svg version="1.1" id="Layer" xmlns="http://www.w3.org/2000/svg" xmlns:xlink="http://www.w3.org/1999/xlink" x="0px" y="0px"
	 viewBox="0 0 512 512" style="enable-background:new 0 0 512 512;" xml:space="preserve">
<style type="text/css">
	.st0{fill:#ffffff;}
</style>
<path class="st0" d="M172.8,331.5c3.1,3,7.1,4.5,11.2,4.5c4.2,0,8.3-1.6,11.5-4.8l51.2-52.5c12.5-12.5,12.5-32.8,0.2-45.1
	l-51.3-52.7c-6.2-6.3-16.3-6.5-22.6-0.3c-6.3,6.2-6.5,16.3-0.3,22.6l51.3,53l-51.3,52.7C166.4,315.2,166.5,325.3,172.8,331.5
	L172.8,331.5z"/>
<path class="st0" d="M260.8,331.5c3.1,3,7.1,4.5,11.2,4.5c4.2,0,8.3-1.6,11.5-4.8l51.2-52.5c12.5-12.5,12.5-32.8,0.2-45.1
	l-51.3-52.7c-6.2-6.3-16.3-6.5-22.6-0.3c-6.3,6.2-6.5,16.3-0.3,22.6l51.3,53l-51.3,52.7C254.4,315.2,254.5,325.3,260.8,331.5
	L260.8,331.5z"/>
</svg>
