<?xml version='1.0' encoding='iso-8859-1'?>
<svg version="1.1" xmlns="http://www.w3.org/2000/svg" viewBox="0 0 264.042 264.042" xmlns:xlink="http://www.w3.org/1999/xlink" enable-background="new 0 0 264.042 264.042">
  <g>
    <path d="m264.042,114.954c0-49.429-59.015-89.5-131.917-89.5s-132.125,40.072-132.125,89.5c0,22.689 12.875,43.396 32.875,59.171v16.495c-4,0.838-8,4.935-8,9.834v13c0,5.5 4.477,10.664 9.917,11.476l87.411,13.049c5.439,0.812 14.352,0.812 19.792,0l87.261-13.049c5.44-0.812 9.62-5.976 9.62-11.476v-13c0-4.899-3-8.996-8-9.834v-16.495c20.999-15.774 33.166-36.481 33.166-59.171zm-50.167,75.067h-165v-16h165v16zm-93.416-102.479l11.744-23.063 11.738,23.063 25.561,4.041-18.301,18.287 4.055,25.555-23.041-11.752-23.055,11.756 4.059-25.557-18.305-18.289 25.545-4.041z"/>
  </g>
</svg>
